<svg xmlns="http://www.w3.org/2000/svg" width="4096" height="4096"><g transform="matrix(13.65333 0 0 13.65333 2048 2048)"><defs><filter id="a" x="-5.97%" y="-7.16%" width="130.71%" height="127.49%" filterUnits="objectBoundingBox"><feOffset dx="13.18" dy="7.53" in="SourceAlpha" result="shadowOffsetOuter1"/><feGaussianBlur stdDeviation="12.75" in="shadowOffsetOuter1" result="shadowBlurOuter1"/><feFlood flood-color="#000" flood-opacity=".31"/><feComposite in2="shadowBlurOuter1" operator="in"/><feMerge><feMergeNode/><feMergeNode in="SourceGraphic"/></feMerge></filter></defs><path d="M-74.8826 125.298c4.0176 0 7.784-1.005 11.0483-3.265L100.635 17.3257c6.026-3.7664 9.541-10.54607 9.541-17.576798 0-7.281832-3.515-13.810402-9.792-17.576802L-64.0854-122.285c-3.5154-2.259-7.2818-3.264-11.0483-3.264-10.0439 0-20.8411 8.035-20.8411 20.841v209.165c0 12.806 11.0483 20.841 21.0922 20.841z" fill="#4d4d4d" filter="url(#a)"/><defs><filter id="b" x="-10.57%" y="-10.57%" width="146.98%" height="146.98%" filterUnits="objectBoundingBox"><feOffset dx="11.07" dy="11.07" in="SourceAlpha" result="shadowOffsetOuter1"/><feGaussianBlur stdDeviation="13.19" in="shadowOffsetOuter1" result="shadowBlurOuter1"/><feFlood flood-color="#000" flood-opacity=".53"/><feComposite in2="shadowBlurOuter1" operator="in"/><feMerge><feMergeNode/><feMergeNode in="SourceGraphic"/></feMerge></filter></defs><path d="M48.2803-59.7542H-59.329c-8.4373 0-15.353 6.9158-15.353 15.353V63.2081c0 8.4373 6.9157 15.353 15.353 15.353H48.2803c8.4372 0 15.353-6.9157 15.353-15.353V-44.4012c0-8.4372-6.9158-15.353-15.353-15.353z" fill="#bebebe" stroke-width="6.63" stroke="#bebebe" stroke-linecap="square" filter="url(#b)"/><path d="M48.2803-78.5611H-59.329c-8.4373 0-15.353 6.9157-15.353 15.353V44.4012c0 8.4372 6.9157 15.353 15.353 15.353H48.2803c8.4372 0 15.353-6.9158 15.353-15.353V-63.2081c0-8.4373-6.9158-15.353-15.353-15.353z" fill="#eee" stroke-width="6.63" stroke="#bebebe" stroke-linecap="square"/><path d="M-26.3228-41.4542c-.8059-1.0162-1.7169-1.8746-2.7331-2.5754-1.0161-.7008-2.0761-1.2614-3.1798-1.6819-1.1038-.4205-2.225-.7271-3.3638-.9198-1.1388-.1927-2.2338-.2891-3.285-.2891-2.9083 0-5.5888.4555-8.0416 1.3666-2.4528.911-4.5727 2.2162-6.3597 3.9156-1.787 1.6995-3.1799 3.758-4.1785 6.1758-.9986 2.4177-1.4979 5.1158-1.4979 8.0942 0 2.9783.4993 5.6764 1.4979 8.0941.9986 2.4178 2.3915 4.4764 4.1785 6.1758 1.787 1.6994 3.9069 3.0046 6.3597 3.91567 2.4528.91103 5.1333 1.36655 8.0416 1.36655 2.5579 0 5.0457-.5256 7.4635-1.57679 2.4177-1.05123 4.415-2.68053 5.9918-4.88803l-6.8328-5.0983c-.8409 1.2614-1.9097 2.2426-3.2061 2.9433-1.2965.7008-2.7857 1.0512-4.4676 1.0512-1.4717 0-2.847-.2978-4.1259-.8935-1.279-.5956-2.3915-1.4278-3.3375-2.4966-.9461-1.0687-1.6907-2.3301-2.2338-3.7842-.5431-1.4542-.8147-3.0573-.8147-4.8092 0-1.717.2716-3.3113.8147-4.783.5431-1.4716 1.2964-2.7418 2.26-3.8105.9636-1.0687 2.1024-1.9009 3.4164-2.4966 1.314-.5957 2.7419-.8935 4.2836-.8935 1.5418 0 2.8995.2628 4.0734.7884 1.1738.5256 2.1637 1.2789 2.9696 2.26l6.3071-5.1508zM.692855-34.3061H-6.24501v-7.5686h-7.88389v7.5686h-5.0458v6.3071h5.0458v12.1413c0 1.4016.2365 2.5929.7095 3.5741.473.9811 1.13 1.7782 1.971 2.39141.8409.6132 1.82206 1.05995 2.94333 1.34027 1.12127.28032 2.34766.42048 3.67917.42048.91103 0 1.83959-.05256 2.78566-.15768.94607-.10512 1.857102-.31536 2.733095-.63072v-6.56996c-.350397.3154-.867233.5169-1.550507.6045-.683278.0876-1.235148.1314-1.655628.1314-.84095 0-1.51547-.1139-2.02354-.3417-.50808-.2277-.88475-.5519-1.13003-.9723-.24528-.4205-.40296-.9198-.47304-1.498-.07008-.5781-.10512-1.2176-.10512-1.9184v-8.5147H.692855v-6.3071zM9.94334-8.76216h7.88396V-19.4317c0-1.2615.0701-2.4178.2102-3.469.1402-1.0512.4468-1.9534.9198-2.7068.473-.7533 1.1476-1.3403 2.0235-1.7607.876-.4205 2.0674-.6308 3.5741-.6308.5957 0 1.1651.0438 1.7082.1314.5431.0876 1.095.219 1.6556.3942v-7.2006c-.3854-.1051-.8059-.1752-1.2614-.2103-.4555-.035-.9111-.0525-1.3666-.0525-1.752 0-3.2061.3942-4.3624 1.1826-1.1563.7884-2.155 1.971-2.9959 3.5477h-.1051v-4.0996H9.94334v25.54394zm26.75286 0h7.8839V-48.4972h-7.8839v39.73504z" fill="#4d4d4d" stroke-width="5.68" stroke="#4d4d4d" stroke-linecap="round" stroke-linejoin="round"/><path d="M-45.3557 4.29459V23.7702h4.2912V16.178h3.1359c1.027 0 1.9806-.0962 2.8609-.2888.8802-.1925 1.6413-.5181 2.2831-.9765.6419-.4585 1.1462-1.0728 1.513-1.8431.3668-.7702.5501-1.7238.5501-2.8608 0-1.15533-.1971-2.11352-.5914-2.87458-.3943-.76105-.9261-1.36623-1.5954-1.81553-.6694-.44929-1.4534-.76563-2.352-.94902-.8986-.18339-1.8522-.27508-2.8608-.27508h-7.2346zm4.2912 8.25241V7.92564h2.2007c.4034 0 .8252.02293 1.2653.06877.4402.04585.839.1513 1.1966.31635.3576.16504.6511.39886.8803.70145.2292.30259.3438.70145.3438 1.19659 0 .4585-.0871.839-.2613 1.1416-.1742.3026-.4034.541-.6877.7152-.2842.1742-.6052.298-.9628.3714-.3576.0733-.7289.11-1.114.11h-2.8609zm18.2466-8.25241h4.2913V19.8091h7.9498v3.9611h-12.2411V4.29459zm28.25589 0L-2.97946 23.7702h4.73138l1.62297-4.1262h7.56471l1.678 4.1262h4.8414L8.98652 4.29459H5.43799zm1.65048 5.66665L9.48166 16.013H4.72278l2.36569-6.05176zM26.4937 15.4628v8.3074h4.2913v-8.3074l7.3171-11.16821h-5.089l-4.3738 7.28961-4.1262-7.28961h-5.3365l7.3171 11.16821z" fill="#4d4d4d" stroke-width="5.28" stroke="#4d4d4d" stroke-linecap="round" stroke-linejoin="round"/></g></svg>
