<svg xmlns="http://www.w3.org/2000/svg" width="4096" height="4096"><path d="M2353 2792l-1130-12-7 497 1132 18c625 6 1136-513 1143-1154 6-642-495-1167-1119-1173l-1131-12-5 497 1131 11c375 4 675 286 672 672-4 386-310 659-686 656z" fill="#537cd4"/><path d="M910 2976l-125 296 1534 23 5-502-823-12 762-1815-245-1-105-2-154-1-849 2014z" fill="#ff8232"/><path d="M1050 3277l962-2314-1284-12-5 497 823 8-762 1818 266 3z" fill="#537cd4"/><path d="M1869 2188l-207 498h700c298 3 543-202 572-498H1869z" fill="#ff8232"/><path d="M2119 1562l-231 578h1047v-15c3-321-247-557-560-560l-256-3z" fill="#537cd4"/><path d="M2233 2070l-23-77 64-48-81-2-26-76-26 76-81 2 64 48-23 77 66-46 66 46zM2480 2070l-23-77 64-48-80-2-27-76-26 76-81 2 64 48-23 77 66-46 66 46zM2728 2070l-23-77 64-48-80-2-27-76-26 76-81 2 64 48-23 77 66-46 66 46z" fill="#fff"/></svg>
